<svg width="34" height="300" viewBox="0 0 34 300" fill="none" xmlns="http://www.w3.org/2000/svg">
<path d="M27.5328 -77.2941C24.0328 -86.1472 7.7374 -94.4705 18.2374 -97H-11.9672L-11.9672 409.733C-11.9672 409.733 21.4419 410.156 18.2374 412.81C15.033 415.465 30.0327 417.034 33.5328 401.196C37.0329 385.359 18.2374 393.129 18.2374 368.678C18.2374 344.226 30.0328 358.09 30.0328 342.071C30.0328 326.052 4.2374 331.742 18.2374 317.408C32.2374 303.075 33.5328 304.259 33.5328 295.827C33.5328 287.396 18.2374 286.747 18.2374 277.034C18.2374 267.32 30.0328 261.189 30.0328 256.551C30.0328 251.914 18.2374 243.204 18.2374 234.78C18.2374 226.355 30.0328 224.023 30.0328 214.108C30.0328 204.193 36.2374 202.529 18.2374 193.887C0.237411 185.245 27.5328 183.617 27.5328 171.665C27.5328 159.712 26.346 160.435 18.2374 152.572C10.1289 144.71 27.5328 146.536 27.5328 132.389C27.5328 118.241 8.73741 122.219 18.2374 111.258C27.7374 100.297 30.0328 107.049 30.0328 94.3797C30.0328 81.71 3.03284 71.9806 14.0328 62.9167C25.0328 53.8528 23.5328 56.1595 27.5328 50.8805C31.5328 45.6015 31.5328 36.7327 18.2374 28.6294C4.94202 20.526 15.5328 20.6845 23.5328 11.8158C31.5328 2.947 18.2374 -2.35639 18.2374 -12.685C18.2374 -23.0136 27.5328 -24.9412 27.5328 -33.3727C27.5328 -41.8042 18.2374 -43.0384 18.2374 -53.5778C18.2374 -64.1171 31.0328 -68.4411 27.5328 -77.2941Z" fill="#AD90C5"/>
</svg>
