<svg width="32" height="512" viewBox="0 0 32 512" fill="none" xmlns="http://www.w3.org/2000/svg">
<path d="M6.46723 19.7059C9.96723 10.8528 26.2627 2.52945 15.7626 0L45.9672 0L45.9672 506.733C45.9672 506.733 12.5582 507.156 15.7626 509.81C18.9671 512.465 3.96741 514.033 0.467287 498.196C-3.03284 482.359 15.7626 490.129 15.7626 465.678C15.7627 441.226 3.96723 455.09 3.96723 439.071C3.96723 423.052 29.7627 428.742 15.7626 414.408C1.76263 400.075 0.467227 401.259 0.467227 392.827C0.467227 384.396 15.7626 383.747 15.7626 374.034C15.7626 364.32 3.96723 358.189 3.96723 353.551C3.96723 348.914 15.7626 340.204 15.7626 331.78C15.7626 323.355 3.96723 321.023 3.96723 311.108C3.96723 301.193 -2.23737 299.529 15.7626 290.887C33.7626 282.245 6.46723 280.617 6.46723 268.665C6.46723 256.712 7.6541 257.435 15.7626 249.572C23.8712 241.71 6.46723 243.536 6.46723 229.389C6.46723 215.241 25.2626 219.219 15.7626 208.258C6.26263 197.297 3.96723 204.049 3.96723 191.38C3.96723 178.71 30.9672 168.981 19.9672 159.917C8.96724 150.853 10.4672 153.16 6.46723 147.881C2.46724 142.601 2.46723 133.733 15.7626 125.629C29.058 117.526 18.4672 117.685 10.4672 108.816C2.46723 99.947 15.7626 94.6436 15.7626 84.315C15.7626 73.9864 6.46723 72.0588 6.46723 63.6273C6.46723 55.1958 15.7626 53.9616 15.7626 43.4222C15.7626 32.8829 2.96723 28.5589 6.46723 19.7059Z" fill="#AD90C5"/>
</svg>
