<svg aria-hidden="true" style="position: absolute; width: 0; height: 0; overflow: hidden;" version="1.1" xmlns="http://www.w3.org/2000/svg" xmlns:xlink="http://www.w3.org/1999/xlink">
<defs>

<symbol id="icon-x-close" viewBox="0 0 32 32">
<path stroke-linejoin="round" stroke-linecap="round" stroke-miterlimit="4" stroke-width="2.2857" d="M24 8l-16 16"></path>
<path stroke-linejoin="round" stroke-linecap="round" stroke-miterlimit="4" stroke-width="2.2857" d="M8 8l16 16"></path>
</symbol>

<symbol id="icon-burger" viewBox="0 0 48 32">
<path stroke-linejoin="round" stroke-linecap="round" stroke-miterlimit="4" stroke-width="4" d="M3 16h42M3 2h42M3 30h42"></path>
</symbol>

<symbol id="icon-about-bottom" viewBox="0 0 816 32">
<path fill="#ffa17b" style="fill: var(--color1, #ffa17b)" d="M31.924 27.53c-14.273-2.383-27.691-13.478-31.769-6.329v-20.565h816.934c0 0 0.681 22.747 4.963 20.565 4.276-2.182 6.808 8.031-18.723 10.414s-13.004-10.414-52.426-10.414c-39.421 0-17.069 8.031-42.894 8.031s-16.654-17.563-39.762-8.031c-23.108 9.532-21.2 10.414-34.792 10.414s-14.638-10.414-30.298-10.414-25.546 8.031-33.021 8.031c-7.476 0-21.518-8.031-35.1-8.031s-17.341 8.031-33.326 8.031c-15.985 0-18.667 4.224-32.6-8.031s-16.556 6.329-35.826 6.329c-19.269 0-18.105-0.808-30.78-6.329s-9.731 6.329-32.539 6.329-16.396-12.797-34.066-6.329c-17.671 6.468-6.785 8.031-27.21 8.031s-36.111-18.383-50.723-10.894c-14.612 7.489-10.894 6.468-19.404 9.191s-22.809 2.723-35.873-6.329c-13.064-9.052-12.808-1.841-27.106 3.605s-22.848-3.605-39.5-3.605c-16.652 0-19.759 6.329-33.352 6.329s-15.583-6.329-32.574-6.329c-16.991 0-23.962 8.712-38.235 6.329z"></path>
</symbol>

<symbol id="icon-about-up" viewBox="0 0 835 32">
<path fill="#ffa17b" style="fill: var(--color1, #ffa17b)" d="M32.696 4.476c-14.583 2.435-28.293 13.771-32.46 6.466v21.012h834.693c0 0 0.696-23.241 5.071-21.012s6.957-8.205-19.13-10.64-13.287 10.64-53.565 10.64c-40.278 0-17.44-8.206-43.826-8.206s-17.016 17.945-40.625 8.206c-23.61-9.739-21.66-10.64-35.549-10.64s-14.957 10.64-30.957 10.64c-16 0-26.1-8.206-33.739-8.206s-21.985 8.206-35.862 8.206c-13.877 0-17.719-8.206-34.051-8.206s-19.073-4.316-33.309 8.206c-14.235 12.522-16.916-6.466-36.605-6.466s-18.498 0.826-31.448 6.466c-12.951 5.641-9.943-6.466-33.247-6.466s-16.751 13.075-34.806 6.466c-18.055-6.609-6.933-8.206-27.802-8.206s-36.896 18.783-51.826 11.13c-14.93-7.652-11.13-6.609-19.826-9.391s-23.304-2.783-36.653 6.466c-13.347 9.249-13.087 1.881-27.695-3.684s-23.345 3.684-40.358 3.684c-17.014 0-20.189-6.466-34.077-6.466s-15.921 6.466-33.282 6.466c-17.361 0-24.483-8.901-39.066-6.466z"></path>
</symbol>

<symbol id="icon-wave-buttom-t" viewBox="0 0 277 32">
<path fill="#ffa17b" style="fill: var(--color1, #ffa17b)" d="M24.807 18.162c-22.145 0-24.737-14.355-24.737-14.355l56.766-0.323c-8.966-0.711-9.884 14.679-32.029 14.679z"></path>
<path fill="#ffa17b" style="fill: var(--color1, #ffa17b)" d="M83.086 17.839c-18.904 0-26.25-14.355-26.25-14.355 7.4 0.162 55.092 0 55.092 0s-9.938 14.355-28.842 14.355z"></path>
<path fill="#ffa17b" style="fill: var(--color1, #ffa17b)" d="M138.556 18.162c-15.663 0-26.627-14.679-26.627-14.679l54.174 0.323c-15.988 3.298-11.883 14.355-27.547 14.355z"></path>
<path fill="#ffa17b" style="fill: var(--color1, #ffa17b)" d="M194.296 18.162c-21.604 0-28.194-14.355-28.194-14.355 6.157 0 55.632 0 55.632 0-14.584 1.96-5.833 14.355-27.438 14.355z"></path>
<path fill="#ffa17b" style="fill: var(--color1, #ffa17b)" d="M249.712 18.162c-18.472 0-12.855-14.355-27.978-14.355h55.093c0 0-8.643 14.355-27.114 14.355z"></path>
</symbol>

<!-- ////////////////////////////////////////// -->

<!-- //////////////////////////////////////////////// -->

<symbol id="icon-wave-up-t" viewBox="0 0 602 32">
<path fill="#ffa17b" style="fill: var(--color1, #ffa17b)" d="M53.992 0c-48.198 0-53.84 31.244-53.84 31.244l123.551 0.704c-19.514 1.548-21.513-31.948-69.71-31.948z"></path>
<path fill="#ffa17b" style="fill: var(--color1, #ffa17b)" d="M180.834 0.704c-41.144 0-57.132 31.244-57.132 31.244 16.105-0.352 119.906 0 119.906 0s-21.63-31.244-62.774-31.244z"></path>
<path fill="#ffa17b" style="fill: var(--color1, #ffa17b)" d="M301.562 0c-34.089 0-57.954 31.948-57.954 31.948l117.909-0.704c-34.797-7.178-25.864-31.244-59.955-31.244z"></path>
<path fill="#ffa17b" style="fill: var(--color1, #ffa17b)" d="M422.88 0c-47.021 0-61.363 31.244-61.363 31.244 13.4 0 121.080 0 121.080 0-31.742-4.266-12.695-31.244-59.718-31.244z"></path>
<path fill="#ffa17b" style="fill: var(--color1, #ffa17b)" d="M543.492 0c-40.203 0-27.977 31.244-60.894 31.244h119.908c0 0-18.81-31.244-59.014-31.244z"></path>
</symbol>

<symbol id="icon-close" viewBox="0 0 32 32">
<path fill="none" stroke="#fff" style="stroke: var(--color1, #fff)" stroke-linejoin="round" stroke-linecap="round" stroke-miterlimit="4" stroke-width="2.6667" d="M24 8l-16 16"></path>
<path fill="none" stroke="#fff" style="stroke: var(--color1, #fff)" stroke-linejoin="round" stroke-linecap="round" stroke-miterlimit="4" stroke-width="2.6667" d="M8 8l16 16"></path>
</symbol>

<symbol id="icon-left-wave" viewBox="0 0 4 32">
<path fill="#ad90c5" style="fill: var(--color1, #ad90c5)" d="M2.937-8.245c-0.373-0.944-2.111-1.832-0.992-2.102h-3.222v54.052c0 0 3.564 0.045 3.222 0.328s1.258 0.451 1.632-1.239c0.373-1.689-1.631-0.86-1.631-3.469s1.258-1.129 1.258-2.838-2.752-1.102-1.258-2.631c1.493-1.529 1.631-1.403 1.631-2.302s-1.631-0.969-1.631-2.005c0-1.036 1.258-1.69 1.258-2.185s-1.258-1.424-1.258-2.322c0-0.899 1.258-1.147 1.258-2.205s0.662-1.235-1.258-2.157c-1.92-0.922 0.992-1.095 0.992-2.37s-0.127-1.198-0.992-2.037c-0.865-0.839 0.992-0.644 0.992-2.153s-2.005-1.085-0.992-2.254 1.258-0.449 1.258-1.8c0-1.351-2.88-2.389-1.707-3.356s1.013-0.721 1.44-1.284c0.427-0.563 0.427-1.509-0.992-2.373s-0.288-0.847 0.565-1.793c0.853-0.946-0.565-1.512-0.565-2.613s0.991-1.307 0.991-2.207c0-0.899-0.992-1.031-0.992-2.155s1.365-1.585 0.992-2.53z"></path>
</symbol>

<symbol id="icon-right-wave" viewBox="0 0 2 32">
<path fill="#ad90c5" style="fill: var(--color1, #ad90c5)" d="M0.404 1.232c0.219-0.553 1.237-1.074 0.581-1.232h1.888v31.671c0 0-2.088 0.026-1.888 0.192s-0.737 0.264-0.956-0.726 0.956-0.504 0.956-2.032c0-1.528-0.737-0.662-0.737-1.663s1.612-0.646 0.737-1.541c-0.875-0.896-0.956-0.822-0.956-1.349s0.956-0.567 0.956-1.175c0-0.607-0.737-0.99-0.737-1.28s0.737-0.834 0.737-1.361c0-0.527-0.737-0.672-0.737-1.292s-0.388-0.724 0.737-1.264c1.125-0.54-0.581-0.642-0.581-1.389s0.074-0.702 0.581-1.193c0.507-0.491-0.581-0.377-0.581-1.261s1.175-0.636 0.581-1.321-0.737-0.263-0.737-1.055c0-0.792 1.688-1.4 1-1.966s-0.594-0.422-0.844-0.752c-0.25-0.33-0.25-0.884 0.581-1.391s0.169-0.497-0.331-1.051 0.331-0.886 0.331-1.531c0-0.646-0.581-0.766-0.581-1.293s0.581-0.604 0.581-1.263c0-0.659-0.8-0.929-0.581-1.482z"></path>
</symbol>


<symbol id="icon-vector-1" viewBox="0 0 2 32">
<path fill="#ad90c5" style="fill: var(--color1, #ad90c5)" d="M2 1.397c-0.187-0.628-1.056-1.218-0.496-1.397h-1.611v35.929c0 0 1.782 0.030 1.611 0.218s0.629 0.299 0.816-0.823-0.816-0.572-0.816-2.306c0-1.734 0.629-0.751 0.629-1.886s-1.376-0.732-0.629-1.749c0.747-1.016 0.816-0.932 0.816-1.53s-0.816-0.644-0.816-1.333 0.629-1.123 0.629-1.452c0-0.329-0.629-0.946-0.629-1.544s0.629-0.763 0.629-1.466 0.331-0.821-0.629-1.434c-0.96-0.613 0.496-0.728 0.496-1.576s-0.063-0.796-0.496-1.354c-0.432-0.557 0.496-0.428 0.496-1.431s-1.002-0.721-0.496-1.498 0.629-0.298 0.629-1.197c0-0.898-1.44-1.588-0.853-2.231s0.507-0.479 0.72-0.853c0.213-0.374 0.213-1.003-0.496-1.578s-0.144-0.563 0.282-1.192c0.427-0.629-0.282-1.005-0.282-1.737s0.496-0.869 0.496-1.467c0-0.598-0.496-0.685-0.496-1.433s0.682-1.054 0.496-1.682z"></path>
</symbol>


<symbol id="icon-vector-1-1" viewBox="0 0 2 32">
<path fill="#ad90c5" style="fill: var(--color1, #ad90c5)" d="M0.304 30.744c0.164 0.553 0.93 1.073 0.437 1.231h1.419v-31.655c0 0-1.57-0.026-1.419-0.192s-0.554-0.264-0.719 0.726c-0.164 0.989 0.719 0.504 0.719 2.031s-0.554 0.661-0.554 1.662c0 1.001 1.212 0.645 0.554 1.541s-0.719 0.821-0.719 1.348 0.719 0.567 0.719 1.174c0 0.607-0.554 0.99-0.554 1.28s0.554 0.834 0.554 1.36c0 0.526-0.554 0.672-0.554 1.291s-0.292 0.723 0.554 1.263c0.846 0.54-0.437 0.642-0.437 1.388s0.056 0.702 0.437 1.193c0.381 0.491-0.437 0.377-0.437 1.261s0.883 0.635 0.437 1.32-0.554 0.263-0.554 1.054c0 0.791 1.269 1.399 0.752 1.965s-0.446 0.422-0.634 0.752c-0.188 0.33-0.188 0.884 0.437 1.39s0.127 0.496-0.249 1.050 0.249 0.885 0.249 1.531c0 0.645-0.437 0.766-0.437 1.292s0.437 0.604 0.437 1.262c0 0.658-0.601 0.928-0.437 1.482z"></path>
</symbol>

</defs>
</svg>
