<svg aria-hidden="true" style="position: absolute; width: 0; height: 0; overflow: hidden;" version="1.1" xmlns="http://www.w3.org/2000/svg" xmlns:xlink="http://www.w3.org/1999/xlink">
<defs>

<symbol id="icon-x-close" viewBox="0 0 32 32">
<path stroke-linejoin="round" stroke-linecap="round" stroke-miterlimit="4" stroke-width="2.2857" d="M24 8l-16 16"></path>
<path stroke-linejoin="round" stroke-linecap="round" stroke-miterlimit="4" stroke-width="2.2857" d="M8 8l16 16"></path>
</symbol>

<symbol id="icon-burger" viewBox="0 0 48 32">
<path stroke-linejoin="round" stroke-linecap="round" stroke-miterlimit="4" stroke-width="4" d="M3 16h42M3 2h42M3 30h42"></path>
</symbol>

<symbol id="icon-about-bottom" viewBox="0 0 816 32">
<path fill="#ffa17b" style="fill: var(--color1, #ffa17b)" d="M31.924 27.53c-14.273-2.383-27.691-13.478-31.769-6.329v-20.565h816.934c0 0 0.681 22.747 4.963 20.565 4.276-2.182 6.808 8.031-18.723 10.414s-13.004-10.414-52.426-10.414c-39.421 0-17.069 8.031-42.894 8.031s-16.654-17.563-39.762-8.031c-23.108 9.532-21.2 10.414-34.792 10.414s-14.638-10.414-30.298-10.414-25.546 8.031-33.021 8.031c-7.476 0-21.518-8.031-35.1-8.031s-17.341 8.031-33.326 8.031c-15.985 0-18.667 4.224-32.6-8.031s-16.556 6.329-35.826 6.329c-19.269 0-18.105-0.808-30.78-6.329s-9.731 6.329-32.539 6.329-16.396-12.797-34.066-6.329c-17.671 6.468-6.785 8.031-27.21 8.031s-36.111-18.383-50.723-10.894c-14.612 7.489-10.894 6.468-19.404 9.191s-22.809 2.723-35.873-6.329c-13.064-9.052-12.808-1.841-27.106 3.605s-22.848-3.605-39.5-3.605c-16.652 0-19.759 6.329-33.352 6.329s-15.583-6.329-32.574-6.329c-16.991 0-23.962 8.712-38.235 6.329z"></path>
</symbol>

<symbol id="icon-about-up" viewBox="0 0 835 32">
<path fill="#ffa17b" style="fill: var(--color1, #ffa17b)" d="M32.696 4.476c-14.583 2.435-28.293 13.771-32.46 6.466v21.012h834.693c0 0 0.696-23.241 5.071-21.012s6.957-8.205-19.13-10.64-13.287 10.64-53.565 10.64c-40.278 0-17.44-8.206-43.826-8.206s-17.016 17.945-40.625 8.206c-23.61-9.739-21.66-10.64-35.549-10.64s-14.957 10.64-30.957 10.64c-16 0-26.1-8.206-33.739-8.206s-21.985 8.206-35.862 8.206c-13.877 0-17.719-8.206-34.051-8.206s-19.073-4.316-33.309 8.206c-14.235 12.522-16.916-6.466-36.605-6.466s-18.498 0.826-31.448 6.466c-12.951 5.641-9.943-6.466-33.247-6.466s-16.751 13.075-34.806 6.466c-18.055-6.609-6.933-8.206-27.802-8.206s-36.896 18.783-51.826 11.13c-14.93-7.652-11.13-6.609-19.826-9.391s-23.304-2.783-36.653 6.466c-13.347 9.249-13.087 1.881-27.695-3.684s-23.345 3.684-40.358 3.684c-17.014 0-20.189-6.466-34.077-6.466s-15.921 6.466-33.282 6.466c-17.361 0-24.483-8.901-39.066-6.466z"></path>
</symbol>

<symbol id="icon-wave-buttom-t" viewBox="0 0 277 32">
<path fill="#ffa17b" style="fill: var(--color1, #ffa17b)" d="M24.807 18.162c-22.145 0-24.737-14.355-24.737-14.355l56.766-0.323c-8.966-0.711-9.884 14.679-32.029 14.679z"></path>
<path fill="#ffa17b" style="fill: var(--color1, #ffa17b)" d="M83.086 17.839c-18.904 0-26.25-14.355-26.25-14.355 7.4 0.162 55.092 0 55.092 0s-9.938 14.355-28.842 14.355z"></path>
<path fill="#ffa17b" style="fill: var(--color1, #ffa17b)" d="M138.556 18.162c-15.663 0-26.627-14.679-26.627-14.679l54.174 0.323c-15.988 3.298-11.883 14.355-27.547 14.355z"></path>
<path fill="#ffa17b" style="fill: var(--color1, #ffa17b)" d="M194.296 18.162c-21.604 0-28.194-14.355-28.194-14.355 6.157 0 55.632 0 55.632 0-14.584 1.96-5.833 14.355-27.438 14.355z"></path>
<path fill="#ffa17b" style="fill: var(--color1, #ffa17b)" d="M249.712 18.162c-18.472 0-12.855-14.355-27.978-14.355h55.093c0 0-8.643 14.355-27.114 14.355z"></path>
</symbol>

<!-- ////////////////////////////////////////// -->

<!-- //////////////////////////////////////////////// -->

<symbol id="icon-wave-up-t" viewBox="0 0 602 32">
<path fill="#ffa17b" style="fill: var(--color1, #ffa17b)" d="M53.992 0c-48.198 0-53.84 31.244-53.84 31.244l123.551 0.704c-19.514 1.548-21.513-31.948-69.71-31.948z"></path>
<path fill="#ffa17b" style="fill: var(--color1, #ffa17b)" d="M180.834 0.704c-41.144 0-57.132 31.244-57.132 31.244 16.105-0.352 119.906 0 119.906 0s-21.63-31.244-62.774-31.244z"></path>
<path fill="#ffa17b" style="fill: var(--color1, #ffa17b)" d="M301.562 0c-34.089 0-57.954 31.948-57.954 31.948l117.909-0.704c-34.797-7.178-25.864-31.244-59.955-31.244z"></path>
<path fill="#ffa17b" style="fill: var(--color1, #ffa17b)" d="M422.88 0c-47.021 0-61.363 31.244-61.363 31.244 13.4 0 121.080 0 121.080 0-31.742-4.266-12.695-31.244-59.718-31.244z"></path>
<path fill="#ffa17b" style="fill: var(--color1, #ffa17b)" d="M543.492 0c-40.203 0-27.977 31.244-60.894 31.244h119.908c0 0-18.81-31.244-59.014-31.244z"></path>
</symbol>

<symbol id="icon-close" viewBox="0 0 32 32">
<path fill="none" stroke="#fff" style="stroke: var(--color1, #fff)" stroke-linejoin="round" stroke-linecap="round" stroke-miterlimit="4" stroke-width="2.6667" d="M24 8l-16 16"></path>
<path fill="none" stroke="#fff" style="stroke: var(--color1, #fff)" stroke-linejoin="round" stroke-linecap="round" stroke-miterlimit="4" stroke-width="2.6667" d="M8 8l16 16"></path>
</symbol>

</defs>
</svg>
