<svg width="44" height="600" viewBox="0 0 44 600" fill="none" xmlns="http://www.w3.org/2000/svg">
<path d="M37.5 26.1974C34 14.4279 17.7046 3.36271 28.2046 0L-1.99999 0L-1.99999 673.663C-1.99999 673.663 31.409 674.224 28.2046 677.754C25.0001 681.283 39.9998 683.368 43.4999 662.314C47.0001 641.26 28.2046 651.589 28.2046 619.083C28.2046 586.576 40 605.008 40 583.712C40 562.416 14.2046 569.979 28.2046 550.924C42.2046 531.869 43.5 533.443 43.5 522.234C43.5 511.024 28.2046 510.162 28.2046 497.249C28.2046 484.336 40 476.184 40 470.019C40 463.854 28.2046 452.275 28.2046 441.076C28.2046 429.876 40 426.775 40 413.594C40 400.413 46.2046 398.201 28.2046 386.712C10.2046 375.222 37.5 373.059 37.5 357.169C37.5 341.279 36.3131 342.24 28.2046 331.787C20.096 321.335 37.5 323.763 37.5 304.955C37.5 286.146 18.7046 291.435 28.2046 276.863C37.7046 262.291 40 271.268 40 254.425C40 237.581 13 224.647 24 212.597C35 200.547 33.5 203.614 37.5 196.596C41.5 189.578 41.5 177.787 28.2046 167.015C14.9092 156.242 25.5 156.453 33.5 144.662C41.5 132.872 28.2046 125.821 28.2046 112.09C28.2046 98.3593 37.5 95.7967 37.5 84.5876C37.5 73.3786 28.2046 71.7378 28.2046 57.7265C28.2046 43.7152 41 37.9669 37.5 26.1974Z" fill="#AD90C5"/>
</svg>
