<svg width="44" height="681" viewBox="0 0 44 681" fill="none" xmlns="http://www.w3.org/2000/svg">
<path d="M6.46717 654.27C9.96717 666.039 26.2626 677.105 15.7626 680.467H45.9672L45.9672 6.80426C45.9672 6.80426 12.5581 6.2428 15.7626 2.71368C18.967 -0.81543 3.96735 -2.90076 0.467226 18.1534C-3.0329 39.2076 15.7626 28.8784 15.7626 61.3846C15.7626 93.8908 3.96717 75.4596 3.96717 96.7556C3.96717 118.052 29.7626 110.488 15.7626 129.543C1.76256 148.599 0.467166 147.025 0.467166 158.234C0.467166 169.443 15.7626 170.305 15.7626 183.218C15.7626 196.131 3.96717 204.283 3.96717 210.448C3.96717 216.613 15.7626 228.192 15.7626 239.392C15.7626 250.591 3.96717 253.692 3.96717 266.873C3.96717 280.054 -2.23743 282.266 15.7626 293.756C33.7626 305.245 6.46717 307.408 6.46717 323.298C6.46717 339.188 7.65404 338.228 15.7626 348.68C23.8711 359.132 6.46717 356.704 6.46717 375.513C6.46717 394.321 25.2626 389.032 15.7626 403.604C6.26257 418.176 3.96717 409.199 3.96717 426.043C3.96717 442.886 30.9672 455.821 19.9672 467.87C8.96718 479.92 10.4672 476.853 6.46717 483.872C2.46718 490.89 2.46717 502.68 15.7626 513.453C29.058 524.225 18.4672 524.015 10.4672 535.805C2.46716 547.595 15.7626 554.646 15.7626 568.377C15.7626 582.108 6.46717 584.671 6.46717 595.88C6.46717 607.089 15.7626 608.729 15.7626 622.741C15.7626 636.752 2.96717 642.5 6.46717 654.27Z" fill="#AD90C5"/>
</svg>
