<svg xmlns="http://www.w3.org/2000/svg" width="34" height="300" fill="none" viewBox="0 0 34 300"><path fill="#AD90C5" d="M27.533-77.294C24.033-86.147 7.737-94.471 18.237-97h-30.204v506.733s33.409.423 30.204 3.077 11.796 4.224 15.296-11.614c3.5-15.837-15.296-8.067-15.296-32.518 0-24.452 11.796-10.588 11.796-26.607s-25.796-10.329-11.796-24.663 15.296-13.149 15.296-21.581c0-8.431-15.296-9.08-15.296-18.793 0-9.714 11.796-15.845 11.796-20.483 0-4.637-11.796-13.347-11.796-21.771s11.796-10.757 11.796-20.672 6.204-11.579-11.796-20.221 9.296-10.27 9.296-22.222-1.187-11.23-9.296-19.093 9.296-6.036 9.296-20.183-18.796-10.17-9.296-21.131 11.796-4.209 11.796-16.878-27-22.4-16-31.463 9.5-6.757 13.5-12.037c4-5.279 4-14.147-9.296-22.25s-2.704-7.945 5.296-16.814-5.296-14.172-5.296-24.501 9.296-12.256 9.296-20.688-9.296-9.665-9.296-20.205 12.796-14.863 9.296-23.716"/></svg>