<svg xmlns="http://www.w3.org/2000/svg" width="32" height="512" fill="none" viewBox="0 0 32 512"><path fill="#AD90C5" d="M6.467 19.706C9.967 10.853 26.263 2.529 15.763 0h30.204v506.733s-33.409.423-30.204 3.077S3.967 514.033.467 498.196s15.296-8.067 15.296-32.518c0-24.452-11.796-10.588-11.796-26.607s25.796-10.329 11.796-24.663S.467 401.259.467 392.827c0-8.431 15.296-9.08 15.296-18.793 0-9.714-11.796-15.845-11.796-20.483 0-4.637 11.796-13.347 11.796-21.771S3.967 321.023 3.967 311.108s-6.204-11.579 11.796-20.221-9.296-10.27-9.296-22.222 1.187-11.23 9.296-19.093-9.296-6.036-9.296-20.183 18.796-10.17 9.296-21.131-11.796-4.209-11.796-16.878 27-22.399 16-31.463-9.5-6.757-13.5-12.036c-4-5.28-4-14.148 9.296-22.252s2.704-7.944-5.296-16.813 5.296-14.172 5.296-24.501-9.296-12.256-9.296-20.688 9.296-9.665 9.296-20.205S2.967 28.56 6.467 19.706"/></svg>