<svg xmlns="http://www.w3.org/2000/svg" width="44" height="681" fill="none" viewBox="0 0 44 681"><path fill="#AD90C5" d="M6.467 654.27c3.5 11.769 19.796 22.835 9.296 26.197h30.204V6.804s-33.409-.561-30.204-4.09S3.967-2.901.467 18.154c-3.5 21.054 15.296 10.724 15.296 43.23S3.967 75.46 3.967 96.757s25.796 13.732 11.796 32.787S.467 147.025.467 158.234s15.296 12.071 15.296 24.984-11.796 21.065-11.796 27.23 11.796 17.744 11.796 28.944-11.796 14.3-11.796 27.481-6.204 15.393 11.796 26.883-9.296 13.652-9.296 29.542 1.187 14.93 9.296 25.382-9.296 8.024-9.296 26.833 18.796 13.519 9.296 28.091-11.796 5.595-11.796 22.439c0 16.843 27 29.778 16 41.827-11 12.05-9.5 8.983-13.5 16.002s-4 18.808 9.296 29.581 2.704 10.562-5.296 22.352 5.296 18.841 5.296 32.572-9.296 16.294-9.296 27.503 9.296 12.849 9.296 26.861c0 14.011-12.796 19.759-9.296 31.529"/></svg>