<svg xmlns="http://www.w3.org/2000/svg" width="44" height="600" fill="none" viewBox="0 0 44 600"><path fill="#AD90C5" d="M37.5 26.197C34 14.427 17.705 3.363 28.205 0H-2v673.663s33.409.561 30.205 4.091C25 681.283 40 683.368 43.5 662.314s-15.295-10.725-15.295-43.231S40 605.008 40 583.712s-25.795-13.733-11.795-32.788S43.5 533.443 43.5 522.234c0-11.21-15.295-12.072-15.295-24.985S40 476.184 40 470.019s-11.795-17.744-11.795-28.943S40 426.775 40 413.594s6.205-15.393-11.795-26.882 9.295-13.653 9.295-29.543-1.187-14.929-9.295-25.382c-8.109-10.452 9.295-8.024 9.295-26.832 0-18.809-18.795-13.52-9.295-28.092S40 271.268 40 254.425c0-16.844-27-29.778-16-41.828s9.5-8.983 13.5-16.001 4-18.809-9.295-29.581c-13.296-10.773-2.705-10.562 5.295-22.353 8-11.79-5.295-18.841-5.295-32.572 0-13.73 9.295-16.293 9.295-27.502 0-11.21-9.295-12.85-9.295-26.861S41 37.967 37.5 26.197"/></svg>